{"glyphs":{"0":{"ha":633,"x_min":0,"x_max":0,"o":""},"1":{"ha":344,"x_min":0,"x_max":0,"o":""},"2":{"ha":603,"x_min":0,"x_max":0,"o":""},"3":{"ha":636,"x_min":0,"x_max":0,"o":""},"4":{"ha":550,"x_min":0,"x_max":0,"o":""},"5":{"ha":597,"x_min":0,"x_max":0,"o":""},"6":{"ha":626,"x_min":0,"x_max":0,"o":""},"7":{"ha":592,"x_min":0,"x_max":0,"o":""},"8":{"ha":615,"x_min":0,"x_max":0,"o":""},"9":{"ha":626,"x_min":0,"x_max":0,"o":""}," ":{"ha":417,"x_min":0,"x_max":0,"o":""}," ":{"ha":417,"x_min":0,"x_max":0,"o":""},"!":{"ha":265,"x_min":0,"x_max":0,"o":"m 186 208 b 264 1004 236 722 213 471 l 263 1004 b 236 981 260 1004 251 1001 b 178 947 219 956 196 947 l 171 947 b 146 967 153 951 158 965 b 99 910 135 967 117 910 l 97 910 b 89 889 90 910 89 889 l 24 210 z m 4 -28 b 28 -22 7 -28 15 -28 b 89 -14 43 -17 71 -14 b 115 -18 107 -14 104 -18 b 156 -4 128 -18 135 -4 b 163 0 163 -4 163 0 l 178 146 l 19 146 l 1 -28 z "},"\"":{"ha":433,"x_min":0,"x_max":0,"o":"m 314 944 l 317 944 b 342 956 329 947 324 951 b 378 960 351 958 365 960 b 406 956 388 960 397 958 b 425 953 415 953 421 953 l 432 953 l 424 994 l 376 1208 l 217 1174 l 263 960 b 268 956 263 960 264 956 l 276 956 b 314 944 292 956 304 944 z m 99 944 l 101 944 b 126 956 114 947 108 951 b 163 960 136 958 150 960 b 190 956 172 960 182 958 b 210 953 200 953 206 953 l 217 953 l 208 994 l 161 1208 l 1 1174 l 47 960 b 53 956 47 960 49 956 l 61 956 b 99 944 76 956 89 944 z "},"#":{"ha":1000,"x_min":0,"x_max":0,"o":"m 72 -57 b 125 -26 82 -57 78 -31 l 140 -26 b 200 -39 181 -26 200 -39 l 226 47 l 228 47 l 272 164 l 265 175 l 276 214 l 538 214 b 458 -44 486 51 508 122 b 494 -22 458 -44 471 -22 l 496 -22 b 532 -46 518 -22 532 -46 l 543 -49 b 593 -28 543 -49 563 -31 l 601 -28 b 629 -44 626 -28 629 -44 b 713 214 679 122 657 60 l 958 214 l 958 215 b 931 240 958 218 956 226 b 890 299 901 254 890 281 l 890 301 b 907 328 892 321 907 317 b 843 371 907 340 843 351 b 821 378 843 378 821 378 l 758 378 l 814 565 l 999 565 l 999 567 b 971 590 999 569 996 578 b 931 647 943 606 931 629 l 931 653 b 947 679 932 671 947 668 b 883 722 947 690 883 703 b 864 729 883 728 869 729 l 922 919 l 908 924 b 899 944 901 926 899 933 b 904 992 899 960 904 979 b 900 1001 904 997 903 1000 l 897 1001 b 844 968 888 1001 892 974 l 826 967 b 769 981 789 967 769 981 l 742 890 l 740 890 l 693 767 l 700 756 l 693 729 l 433 729 b 511 989 485 904 458 814 l 508 989 b 478 965 506 989 496 986 b 419 933 458 942 436 933 b 404 936 414 933 408 935 b 385 964 388 943 396 960 b 325 903 372 964 343 903 l 321 903 b 307 881 314 903 307 881 b 260 729 279 788 293 826 l 100 729 l 100 715 b 40 685 100 690 40 699 b 79 642 40 669 64 688 b 90 586 88 618 90 599 b 88 565 90 572 88 565 l 201 565 l 208 554 l 156 378 l 60 378 l 60 365 b 1 333 60 339 1 349 b 40 290 1 319 25 338 b 50 236 47 268 50 250 b 47 214 50 222 47 214 l 106 214 l 47 21 l 60 18 b 71 -4 68 15 71 7 b 65 -47 71 -18 65 -36 b 69 -57 65 -53 67 -56 z m 586 378 l 326 378 l 383 565 l 643 565 z "},"$":{"ha":551,"x_min":0,"x_max":0,"o":"m 144 -200 b 182 -187 154 -200 167 -187 l 190 -189 b 197 -182 196 -189 197 -182 l 240 0 l 300 0 l 414 196 b 486 311 460 271 436 236 l 488 315 b 514 357 506 342 496 329 l 517 558 l 414 560 b 386 550 404 557 394 554 l 204 550 l 340 783 l 550 783 l 550 785 b 540 808 550 788 549 796 b 525 868 529 824 525 850 b 531 893 526 886 531 882 b 508 935 531 904 508 917 b 501 942 508 942 501 942 l 481 942 b 525 1136 514 1076 503 1008 l 521 1136 b 497 1131 515 1136 508 1136 b 460 1124 486 1125 474 1124 b 435 1126 451 1124 442 1125 b 410 1136 417 1129 421 1135 l 407 1136 b 367 1121 396 1136 383 1121 l 361 1121 b 354 1114 356 1121 354 1114 l 313 942 l 289 942 b 285 943 288 943 286 943 l 247 944 b 136 767 178 831 213 888 l 138 751 l 40 583 l 40 392 l 344 392 l 208 158 l 1 158 l 1 157 b 11 133 1 154 3 147 b 26 74 22 118 26 92 b 19 49 25 56 19 60 b 43 7 19 38 43 26 b 50 0 43 0 50 0 l 72 0 b 26 -190 42 -131 60 -67 b 35 -192 26 -190 29 -192 b 54 -187 39 -192 46 -190 b 82 -183 63 -185 72 -183 b 117 -187 94 -183 107 -185 b 142 -200 135 -193 131 -197 z "},"%":{"ha":617,"x_min":0,"x_max":0,"o":"m 50 -32 b 82 -8 54 -32 64 -28 b 138 21 100 13 121 21 b 156 17 144 21 151 19 b 174 -11 172 8 163 -7 l 175 -11 b 236 46 186 -11 218 46 l 240 46 b 254 68 247 46 254 68 l 546 911 l 533 915 b 524 935 526 918 524 925 b 531 982 524 950 531 969 b 526 990 531 986 529 989 l 524 990 b 471 961 514 990 518 964 l 465 961 b 396 978 419 961 396 978 l 46 -31 z m 151 679 b 163 681 156 679 160 679 b 188 685 171 681 179 682 b 231 704 203 689 218 696 b 267 738 244 714 257 725 b 297 828 286 763 297 796 l 188 828 b 199 839 190 829 194 831 l 203 843 l 206 849 l 214 860 b 231 875 219 867 225 872 b 239 876 233 876 236 876 l 244 874 b 251 871 246 872 249 871 l 254 871 b 256 876 256 871 256 874 b 250 901 256 882 254 892 b 246 914 250 906 249 910 b 243 924 244 917 243 921 b 240 933 242 926 240 931 l 242 939 b 235 949 242 940 239 944 l 224 956 b 179 972 210 964 194 969 b 149 976 168 975 158 976 l 131 975 b 44 933 99 971 68 956 b 17 894 33 922 24 908 l 11 883 l 7 871 l 4 860 b 3 847 3 856 3 851 b 1 824 1 840 1 832 b 3 800 1 815 1 808 b 21 754 7 783 13 768 b 92 690 36 726 63 703 b 139 679 107 685 122 681 z m 153 794 l 147 794 b 117 821 132 796 119 806 b 115 832 115 825 115 829 b 144 861 119 846 128 860 b 156 860 149 861 153 861 b 182 828 171 857 181 844 l 183 828 l 182 828 b 153 794 182 810 169 797 z m 468 -22 b 481 -21 472 -21 476 -21 b 504 -17 489 -19 496 -19 b 549 3 519 -12 535 -6 b 583 36 563 13 574 24 b 615 126 604 61 614 94 l 501 126 l 504 128 b 517 138 507 128 513 131 l 524 149 l 531 158 b 549 174 536 165 543 171 b 556 175 551 175 554 175 b 561 172 558 175 560 174 b 569 169 564 171 567 169 l 571 169 b 574 176 572 169 574 172 b 568 201 574 183 571 192 l 560 222 b 557 232 558 226 557 229 l 558 238 b 551 247 558 240 556 243 l 544 253 l 542 254 b 496 272 528 263 513 268 l 468 275 l 449 274 b 363 232 417 269 385 254 b 333 193 351 221 342 207 l 325 171 b 322 158 324 167 322 163 l 319 147 l 318 126 l 321 99 b 338 53 324 82 329 67 b 410 -10 354 25 379 3 b 457 -21 424 -17 440 -21 z m 469 93 l 464 93 b 433 119 449 94 436 106 l 433 131 b 463 160 438 146 446 158 l 474 160 b 500 126 488 156 499 144 b 469 93 499 108 488 97 z "},"&":{"ha":547,"x_min":0,"x_max":0,"o":"m 139 -185 b 164 -178 143 -185 151 -183 b 208 -169 176 -172 193 -169 l 226 -171 b 253 -179 246 -174 242 -178 l 254 -179 b 296 -162 265 -179 278 -162 l 300 -162 b 306 -156 304 -162 306 -156 l 321 0 l 465 0 l 465 1 b 454 25 465 4 464 13 b 438 81 443 40 438 63 l 438 86 b 444 113 438 104 444 101 b 418 156 444 125 418 136 b 410 163 418 163 410 163 l 206 163 l 231 272 l 460 301 l 449 522 l 228 643 l 253 783 l 546 783 l 546 785 b 535 808 546 786 544 794 b 518 864 524 824 518 846 l 518 869 b 525 896 518 888 525 885 b 499 939 525 907 499 919 b 490 946 499 946 490 946 l 424 946 l 436 1082 l 432 1082 b 410 1076 428 1082 421 1082 b 367 1068 399 1071 382 1068 l 347 1069 b 322 1076 329 1071 333 1076 l 321 1076 b 281 1061 310 1076 297 1061 l 276 1061 b 269 1054 269 1061 269 1054 l 258 946 l 117 946 l 47 556 l 260 440 l 99 419 l 1 0 l 157 0 b 138 -185 144 -126 153 -64 z "},"'":{"ha":218,"x_min":0,"x_max":0,"o":"m 119 944 b 157 956 129 944 142 956 l 165 956 b 171 960 169 956 171 960 l 217 1174 l 57 1208 l 1 953 l 8 953 b 29 956 14 953 21 953 b 56 960 36 958 46 960 b 92 956 68 960 82 958 b 117 944 110 951 106 947 z "},"(":{"ha":429,"x_min":0,"x_max":0,"o":"m 342 -107 b 343 -106 342 -107 343 -107 l 343 -103 b 342 -101 342 -103 342 -101 l 342 -99 b 318 -62 339 -93 332 -82 b 299 -11 304 -43 299 -26 l 299 -7 b 310 19 299 6 304 14 b 322 26 314 24 318 26 l 328 25 l 335 25 b 343 28 338 25 340 25 l 343 29 b 324 67 343 36 332 50 l 315 81 l 311 93 b 310 103 310 97 310 100 b 311 110 310 106 310 108 l 313 113 b 307 124 313 115 310 119 l 299 133 b 193 294 253 181 217 236 b 169 388 182 325 174 356 b 165 449 167 407 165 428 l 167 483 b 217 668 171 549 188 611 b 336 825 246 726 288 779 b 393 872 354 842 374 857 l 386 883 b 383 890 385 886 383 888 b 403 918 383 899 393 910 b 428 943 415 929 428 938 l 426 946 b 422 950 425 949 424 950 b 408 946 418 950 414 947 l 400 946 b 363 957 392 946 379 947 b 321 996 342 971 328 985 b 311 1014 313 1007 311 1014 b 225 946 281 993 253 969 b 140 851 194 917 165 885 b 71 743 114 818 90 782 b 24 622 51 704 35 664 b 3 493 13 581 6 536 l 1 450 b 7 364 1 421 3 393 b 40 236 14 319 25 278 b 100 121 57 196 76 157 b 181 19 124 83 150 50 b 254 -49 204 -6 229 -28 b 296 -78 268 -58 282 -69 l 317 -93 b 342 -107 328 -97 331 -99 z "},")":{"ha":429,"x_min":0,"x_max":0,"o":"m 88 1014 b 86 1013 88 1014 86 1014 l 86 1010 b 88 1008 88 1010 88 1008 l 88 1006 b 111 969 90 1000 97 989 b 131 918 125 950 131 933 l 131 914 b 119 888 131 901 125 893 b 106 881 115 883 111 881 l 101 882 l 94 882 b 86 879 92 882 88 882 l 85 878 b 106 840 85 871 96 857 l 114 826 l 118 814 b 119 804 119 811 119 807 b 118 797 119 801 119 799 l 117 794 b 122 783 117 792 118 788 l 131 774 b 236 613 176 726 213 671 b 260 519 247 582 256 551 b 264 458 261 500 264 479 l 263 424 b 213 239 258 358 242 296 b 93 82 183 181 142 128 b 36 35 75 65 56 50 l 43 24 b 44 17 44 21 44 19 b 26 -11 44 8 36 -3 b 1 -36 14 -22 1 -31 l 3 -39 b 7 -43 3 -42 4 -43 b 21 -39 10 -43 14 -40 l 28 -39 b 67 -50 38 -39 50 -40 b 108 -89 88 -64 101 -78 b 118 -107 117 -100 118 -107 b 204 -39 149 -86 176 -62 b 289 56 235 -10 264 22 b 358 164 315 89 339 125 b 406 285 378 203 394 243 b 426 414 417 326 424 371 l 428 457 b 422 543 428 486 425 514 b 389 671 415 588 404 629 b 329 786 372 711 353 750 b 249 888 306 824 279 857 b 175 956 225 913 200 935 b 133 985 161 965 147 976 l 113 1000 b 88 1014 100 1004 99 1006 z "},"*":{"ha":421,"x_min":0,"x_max":0,"o":"m 153 944 b 171 956 156 944 161 946 b 214 974 182 969 201 974 b 233 967 228 972 225 967 b 263 993 242 967 249 993 b 268 1003 268 993 268 1003 l 268 1024 l 346 960 b 349 968 346 960 349 961 l 346 982 b 344 996 344 986 344 992 b 357 1029 344 1010 350 1022 b 375 1039 365 1039 369 1032 l 376 1042 b 367 1076 376 1049 367 1065 b 368 1083 367 1079 367 1082 l 368 1085 b 363 1094 368 1089 363 1094 l 300 1146 l 419 1244 l 346 1332 l 268 1268 l 268 1324 l 258 1324 b 236 1347 240 1324 247 1347 b 207 1331 226 1347 239 1338 b 168 1328 190 1328 176 1328 l 153 1328 l 153 1268 l 75 1332 l 1 1244 l 121 1146 b 3 1047 39 1079 83 1115 b 19 1043 3 1047 4 1043 l 31 1043 b 69 1024 49 1043 64 1033 b 72 1014 72 1019 72 1017 l 72 1010 l 75 1004 b 79 1003 76 1003 78 1003 b 108 1007 86 1003 99 1007 b 119 1003 114 1007 117 1006 l 122 1001 b 132 1007 126 1001 132 1007 l 153 1024 z "},"+":{"ha":665,"x_min":0,"x_max":0,"o":"m 296 113 b 339 139 310 113 292 128 b 393 146 363 144 381 146 b 414 144 407 146 414 144 l 414 361 l 664 361 l 664 363 b 644 388 664 365 663 374 b 617 444 625 401 617 426 l 617 449 b 628 475 618 467 628 464 b 583 518 628 488 583 499 b 568 525 583 525 568 525 l 414 525 l 414 775 l 413 775 b 389 756 410 775 403 774 b 332 726 374 735 350 726 l 328 726 b 300 739 308 728 313 739 b 257 694 289 739 278 694 b 250 679 250 694 250 679 l 250 525 l 42 525 l 42 511 b 1 481 42 486 1 496 b 28 438 1 467 18 483 b 35 382 33 414 35 394 b 33 361 35 368 33 361 l 250 361 l 250 153 l 264 153 b 296 113 289 153 281 113 z "},",":{"ha":218,"x_min":0,"x_max":0,"o":"m 118 -39 b 157 -28 129 -39 142 -28 l 164 -28 b 171 -22 169 -28 171 -22 l 217 190 l 56 225 l 1 -31 l 8 -31 b 28 -28 13 -31 19 -31 b 56 -24 36 -25 46 -24 b 90 -28 68 -24 81 -25 b 115 -39 108 -32 104 -36 z "},"-":{"ha":665,"x_min":0,"x_max":0,"o":"m 664 361 l 664 363 b 646 388 664 365 663 375 b 617 444 625 401 617 426 l 617 449 b 629 475 618 467 629 464 b 585 518 629 488 585 499 b 569 525 585 525 569 525 l 42 525 l 42 511 b 1 481 42 486 1 496 b 29 438 1 467 18 483 b 36 379 35 413 36 392 l 35 361 z "},"­":{"ha":665,"x_min":0,"x_max":0,"o":"m 664 361 l 664 363 b 646 388 664 365 663 375 b 617 444 625 401 617 426 l 617 449 b 629 475 618 467 629 464 b 585 518 629 488 585 499 b 569 525 585 525 569 525 l 42 525 l 42 511 b 1 481 42 486 1 496 b 29 438 1 467 18 483 b 36 379 35 413 36 392 l 35 361 z "},".":{"ha":167,"x_min":0,"x_max":0,"o":"m 3 -28 b 26 -22 7 -28 14 -28 b 88 -14 43 -17 69 -14 b 115 -18 107 -14 103 -18 b 158 -4 126 -18 138 -4 b 165 0 165 -4 165 0 l 165 146 l 1 146 l 1 -28 z "},"/":{"ha":467,"x_min":0,"x_max":0,"o":"m 4 -44 b 35 -21 7 -44 17 -42 b 93 11 54 3 76 11 b 108 8 99 11 104 10 b 128 -19 125 1 117 -15 b 188 42 140 -19 169 42 l 192 42 b 206 64 199 42 206 64 b 465 924 365 594 290 356 l 453 926 b 442 949 444 929 442 938 b 447 992 442 963 447 981 b 443 1001 447 997 446 1000 l 440 1001 b 388 971 429 1001 435 975 l 372 971 b 313 983 332 971 313 983 l 286 899 b 1 -44 86 238 193 588 z "},":":{"ha":167,"x_min":0,"x_max":0,"o":"m 4 -28 b 28 -22 7 -28 15 -28 b 89 -14 43 -17 71 -14 b 115 -18 107 -14 104 -18 b 158 -4 128 -18 139 -4 b 165 0 165 -4 165 0 l 165 146 l 1 146 l 1 -28 z m 165 625 l 165 800 b 140 793 165 800 156 800 b 78 785 124 788 97 785 b 51 789 60 785 63 789 b 8 775 40 789 28 775 b 1 771 1 775 1 771 l 1 625 z "},";":{"ha":218,"x_min":0,"x_max":0,"o":"m 119 -39 b 157 -28 129 -39 142 -28 l 164 -28 b 171 -22 169 -28 171 -22 l 217 190 l 57 225 l 1 -31 l 8 -31 b 29 -28 14 -31 21 -31 b 57 -24 38 -25 47 -24 b 92 -28 69 -24 82 -25 b 117 -39 110 -32 106 -36 z m 217 625 l 217 800 b 192 793 217 800 208 800 b 131 785 175 788 149 785 b 103 789 111 785 115 789 b 60 775 92 789 81 775 b 53 771 53 775 53 771 l 53 625 z "},"<":{"ha":756,"x_min":0,"x_max":0,"o":"m 690 124 b 696 126 693 124 694 125 l 697 129 b 672 181 697 139 672 143 l 672 189 b 701 260 678 239 701 260 l 339 463 l 754 694 b 733 700 754 694 754 700 l 710 699 l 693 697 b 633 726 660 697 639 713 l 632 733 b 640 757 632 744 640 750 l 639 761 b 632 763 638 763 636 763 b 563 753 618 763 583 753 b 546 758 554 753 549 754 l 542 760 b 518 750 535 760 518 750 l 1 463 b 608 124 396 243 208 350 l 614 136 b 626 143 617 140 621 143 b 690 124 646 143 678 124 z "},"=":{"ha":665,"x_min":0,"x_max":0,"o":"m 664 257 b 644 283 664 260 663 268 b 615 340 624 297 615 322 l 615 344 b 628 371 617 364 628 360 b 583 414 628 383 583 394 b 568 421 583 421 568 421 l 42 421 l 42 408 b 1 376 42 382 1 392 b 28 333 1 363 17 381 b 35 278 33 311 35 292 b 33 257 35 265 33 257 z m 664 465 b 644 490 664 468 663 476 b 615 549 624 506 615 529 l 615 553 b 628 579 617 571 628 568 b 583 622 628 590 583 603 b 568 629 583 629 568 629 l 42 629 l 42 615 b 1 585 42 590 1 600 b 28 542 1 569 17 588 b 35 486 33 518 35 499 b 33 465 35 472 33 465 z "},">":{"ha":756,"x_min":0,"x_max":0,"o":"m 65 124 b 129 143 78 124 110 143 b 142 136 135 143 139 140 l 147 124 b 754 463 547 350 360 243 l 238 750 b 214 760 238 750 221 760 l 210 758 b 193 753 207 754 201 753 b 124 763 172 753 138 763 b 117 761 119 763 118 763 l 115 757 b 124 733 115 750 124 744 l 122 726 b 63 697 117 713 96 697 l 46 699 l 22 700 b 1 694 1 700 1 694 l 417 463 l 54 260 b 83 189 54 260 78 239 l 83 181 b 58 129 83 143 58 139 l 60 126 b 65 124 61 125 63 124 z "},"?":{"ha":536,"x_min":0,"x_max":0,"o":"m 4 -28 b 28 -22 7 -28 15 -28 b 89 -14 43 -17 71 -14 b 115 -18 107 -14 104 -18 b 154 -4 128 -18 135 -4 b 163 0 163 -4 163 0 l 174 146 l 14 146 l 1 -28 z m 181 210 l 196 401 l 535 571 l 493 944 l 47 944 b 69 707 63 793 54 869 b 94 715 69 707 79 707 b 156 728 110 722 136 728 l 164 728 b 182 726 174 728 174 726 b 224 743 193 728 204 742 b 231 749 231 743 231 749 l 228 783 l 229 781 l 346 781 l 358 667 l 40 507 l 18 210 z "},"@":{"ha":981,"x_min":0,"x_max":0,"o":"m 882 0 b 863 26 882 3 881 11 b 836 83 844 40 836 65 l 836 88 b 847 115 838 107 847 103 b 806 158 847 126 806 139 b 790 165 806 165 790 165 l 408 165 l 383 199 l 188 443 l 307 779 l 731 779 l 807 643 l 767 376 l 506 371 l 429 467 b 471 578 456 538 446 503 l 538 576 l 538 385 l 539 385 b 564 396 542 385 550 386 b 618 411 578 407 600 411 l 625 411 b 653 406 644 411 640 406 b 696 431 664 406 676 431 b 703 439 703 431 703 439 l 703 700 l 704 699 l 704 740 l 356 744 l 243 438 l 426 203 l 910 214 l 979 674 l 829 944 l 189 944 l 1 411 l 331 0 z "},"A":{"ha":669,"x_min":0,"x_max":0,"o":"m 533 -40 b 553 -4 536 -40 544 -37 b 606 54 563 35 586 53 l 607 54 b 632 39 622 54 624 39 l 635 39 b 664 121 646 40 644 117 b 668 133 667 121 668 126 l 667 147 l 531 944 l 372 944 l 1 3 l 4 3 b 38 26 8 3 18 6 b 96 56 58 47 79 56 b 114 51 103 56 108 54 b 131 22 131 42 121 26 l 132 22 b 197 81 144 22 179 81 l 201 81 b 217 103 208 81 217 103 l 283 272 l 479 272 z m 472 313 b 449 358 463 328 449 344 l 449 360 b 451 386 449 378 451 375 b 438 429 451 399 438 410 b 433 436 438 436 433 436 l 349 436 l 421 618 z "},"B":{"ha":683,"x_min":0,"x_max":0,"o":"m 194 0 b 217 6 201 0 217 6 l 674 203 l 674 389 l 543 426 l 682 563 l 629 774 l 444 944 l 121 944 l 121 943 b 153 915 121 939 124 928 b 201 858 188 900 201 876 l 201 856 b 182 829 199 838 182 840 b 256 789 182 818 256 808 b 281 782 256 782 281 782 l 331 783 b 288 765 317 771 301 765 l 279 767 b 254 785 261 771 267 783 b 207 733 243 785 225 733 l 204 733 b 197 715 199 733 197 715 l 126 142 l 1 88 b 42 78 1 88 1 78 b 111 42 83 78 106 60 l 113 36 b 103 13 113 25 103 21 l 103 10 b 115 7 104 7 108 7 l 163 10 b 190 1 176 10 188 8 b 194 0 190 0 192 0 z m 297 215 l 311 328 l 486 285 z m 332 496 l 367 783 l 381 783 b 383 779 383 782 383 781 b 476 683 394 765 411 751 l 485 688 l 504 613 l 386 497 z "},"C":{"ha":567,"x_min":0,"x_max":0,"o":"m 464 0 b 454 25 464 0 464 10 b 440 79 444 40 440 61 l 440 86 b 446 113 440 104 446 101 b 424 154 446 124 424 135 b 417 161 424 161 417 161 l 267 161 l 179 386 l 169 385 l 206 588 l 388 776 l 565 776 l 565 778 b 557 801 565 781 564 789 b 546 854 550 815 546 836 l 546 861 b 550 888 546 881 550 876 b 532 931 550 900 532 911 b 525 938 532 938 525 938 l 449 938 l 450 944 l 326 944 l 306 924 l 304 924 l 182 810 l 182 796 l 56 664 l 1 365 l 161 0 z "},"D":{"ha":622,"x_min":0,"x_max":0,"o":"m 269 -4 b 325 47 304 28 289 11 b 369 86 353 75 336 58 l 371 101 l 621 347 l 572 657 l 371 944 l 76 944 l 76 943 b 119 919 76 940 81 932 b 182 861 164 904 182 879 l 182 857 b 156 831 179 839 156 842 b 239 800 156 821 213 813 l 229 789 b 172 757 213 765 189 757 l 164 757 b 139 776 146 761 150 775 b 90 722 128 776 108 722 l 89 722 b 79 703 82 722 79 703 l 1 58 l 53 51 b 57 22 57 40 57 31 b 54 1 57 10 54 1 l 171 1 l 172 0 l 196 -1 z m 201 165 l 181 165 l 256 785 b 281 781 258 782 281 781 l 285 781 b 410 593 371 658 336 708 l 408 590 l 418 511 l 431 503 l 446 406 z "},"E":{"ha":565,"x_min":0,"x_max":0,"o":"m 463 0 b 453 25 463 0 463 10 b 439 79 443 40 439 61 l 439 86 b 444 113 439 104 444 101 b 422 154 444 124 422 135 b 415 161 422 161 415 161 l 265 161 l 260 174 b 185 369 207 304 238 232 b 179 385 181 379 179 375 l 178 385 l 178 386 l 174 385 l 168 385 l 174 413 l 325 413 b 317 438 325 413 325 422 b 307 489 310 451 307 472 l 307 499 b 311 525 307 517 311 514 b 294 567 311 536 294 547 b 289 574 294 574 289 574 l 201 574 l 204 588 l 386 776 l 564 776 l 564 778 b 556 801 564 781 563 789 b 544 854 549 815 544 836 l 544 861 b 549 888 544 881 549 876 b 531 931 549 900 531 911 b 524 938 531 938 524 938 l 447 938 l 449 944 l 325 944 l 304 924 l 303 924 b 181 810 224 849 261 885 l 181 796 l 54 664 l 1 365 l 160 0 z "},"F":{"ha":654,"x_min":0,"x_max":0,"o":"m 1 -4 l 163 0 l 210 397 l 396 397 l 396 399 b 389 422 396 401 396 410 b 376 475 381 436 376 457 l 376 482 b 381 508 376 500 381 497 b 363 550 381 519 363 532 b 356 557 363 557 356 557 l 229 557 l 254 769 l 317 764 l 321 774 l 615 774 l 615 788 b 653 818 615 811 653 803 b 628 860 653 832 638 814 b 622 911 624 881 622 899 b 624 935 622 926 624 935 l 575 935 l 575 936 l 510 944 l 504 935 l 56 935 l 56 933 b 72 910 56 931 57 922 b 99 849 92 893 99 867 b 88 822 97 831 88 835 b 128 781 88 811 128 800 b 136 774 128 776 132 775 b 96 722 125 760 111 722 l 94 722 b 85 701 88 722 85 701 z m 176 758 l 168 760 b 151 774 157 763 154 769 l 214 774 b 176 758 200 764 188 758 z "},"G":{"ha":668,"x_min":0,"x_max":0,"o":"m 244 0 l 247 1 b 522 175 426 117 332 56 l 667 544 l 343 544 l 343 543 b 368 519 343 540 346 532 b 406 463 396 506 406 481 l 406 460 b 390 433 404 442 390 444 b 419 415 390 428 404 422 l 432 408 l 432 407 l 433 404 l 433 400 l 432 385 l 431 385 l 392 282 l 240 188 b 182 369 200 310 225 233 b 176 385 178 379 176 375 l 167 385 l 199 592 l 354 776 l 503 776 b 496 801 503 776 503 786 b 485 863 488 818 485 843 b 489 889 486 881 489 876 b 474 931 489 900 474 911 b 468 938 474 938 468 938 l 396 938 l 397 944 l 286 944 b 256 908 267 921 278 931 l 253 908 b 149 797 188 833 224 876 l 150 783 l 47 661 l 1 367 l 138 1 l 243 1 z "},"H":{"ha":703,"x_min":0,"x_max":0,"o":"m 432 -29 b 464 -3 432 -29 440 -7 l 468 -3 b 503 -19 489 -3 503 -19 l 514 -21 b 560 7 514 -21 529 -1 l 574 10 b 597 -3 592 10 597 -3 b 650 368 628 240 610 128 l 642 378 l 694 836 l 701 908 l 689 910 b 665 979 664 913 681 978 l 664 979 b 618 940 651 979 664 953 b 578 935 603 936 589 935 b 543 940 556 935 543 940 l 533 854 l 531 854 l 508 736 l 518 726 l 489 475 l 488 496 l 488 504 b 493 531 488 522 493 519 b 443 574 493 542 443 554 b 436 581 443 581 436 581 l 235 581 b 272 911 263 814 250 694 l 260 913 b 236 979 235 915 250 978 l 235 979 b 189 942 222 979 235 954 b 151 938 175 939 161 938 b 113 943 126 938 113 943 l 104 863 b 1 -29 33 256 68 563 l 3 -29 b 31 -3 7 -29 15 -26 b 88 36 47 25 69 36 l 96 35 b 119 14 114 31 108 14 b 168 76 131 14 150 76 l 169 76 b 179 100 176 76 179 100 l 215 418 l 483 418 z "},"I":{"ha":269,"x_min":0,"x_max":0,"o":"m 3 -49 b 31 -21 6 -49 14 -46 b 86 19 47 8 69 19 l 94 18 b 119 -3 113 14 108 -3 b 168 63 131 -3 150 63 b 178 86 175 63 178 86 l 268 918 l 256 919 b 232 988 231 922 246 985 l 231 988 b 185 949 218 988 231 961 b 144 943 169 944 156 943 b 110 949 122 943 110 949 l 101 865 l 1 -49 z "},"J":{"ha":754,"x_min":0,"x_max":0,"o":"m 526 -6 l 685 343 l 753 969 l 751 969 b 725 950 747 969 739 968 b 671 921 708 929 688 921 l 660 922 b 635 939 642 925 646 938 b 588 890 624 939 606 890 l 585 890 b 578 874 579 890 578 874 l 525 388 l 421 158 l 235 158 l 299 338 l 296 339 b 264 315 292 339 283 335 b 208 288 244 294 224 288 b 189 292 200 288 194 289 b 171 319 172 300 182 315 l 169 319 b 107 263 158 319 126 263 l 103 263 b 89 240 97 263 89 240 l 90 240 l 1 -6 z "},"K":{"ha":674,"x_min":0,"x_max":0,"o":"m 622 -43 b 626 -26 622 -43 626 -40 b 625 -10 626 -22 626 -17 l 622 7 b 643 57 622 28 632 46 b 671 68 657 69 663 60 l 672 72 b 661 121 672 83 661 104 b 664 132 661 125 661 129 l 665 135 b 657 149 665 140 657 147 l 600 199 l 508 297 l 497 293 l 251 517 l 635 865 b 617 871 635 865 632 871 l 600 869 l 588 868 b 535 893 564 868 544 881 b 529 907 531 899 529 903 l 529 914 b 526 922 529 917 529 919 b 521 924 525 924 524 924 b 474 915 511 924 489 915 b 460 919 468 915 463 915 l 457 921 b 446 915 454 921 449 918 l 253 740 l 264 833 l 261 835 l 264 833 l 272 900 l 258 901 b 235 967 233 904 249 964 l 233 967 b 186 931 221 967 233 942 b 146 925 171 926 157 925 b 110 931 122 925 110 931 l 101 853 b 60 499 72 601 90 731 l 1 -17 l 3 -17 b 31 10 6 -17 14 -14 b 89 46 47 36 71 46 l 96 46 b 121 25 114 42 110 26 b 169 86 132 25 151 86 l 171 86 b 181 108 178 86 181 108 b 207 336 199 264 188 185 b 546 26 432 129 307 244 z "},"L":{"ha":504,"x_min":0,"x_max":0,"o":"m 503 0 b 486 25 503 3 501 11 b 461 82 468 40 461 64 l 461 88 b 471 114 463 106 471 101 b 433 157 471 125 433 136 b 419 164 433 164 419 164 l 179 164 l 271 961 l 269 961 b 243 933 267 961 258 958 b 185 893 225 904 203 893 l 176 894 b 151 917 158 899 164 915 b 103 850 140 917 121 850 l 101 850 b 92 826 94 850 92 826 l 1 43 l 1 0 z "},"M":{"ha":907,"x_min":0,"x_max":0,"o":"m 397 -54 b 413 -18 397 -54 407 -54 b 458 43 418 19 440 39 l 463 43 b 488 33 475 43 479 33 l 490 33 b 510 111 501 36 492 106 b 513 119 513 113 513 115 b 510 136 513 126 510 136 l 508 140 l 688 482 l 647 143 l 629 -19 l 631 -19 b 658 10 633 -19 643 -17 b 717 53 675 40 699 53 l 725 51 b 749 28 743 47 738 29 b 799 99 761 28 781 99 l 800 99 b 811 125 807 99 811 125 l 906 944 l 743 944 l 440 363 l 261 944 l 113 944 l 1 -19 l 3 -19 b 31 10 6 -19 15 -17 b 89 53 47 40 71 53 l 97 51 b 121 28 115 47 110 29 b 171 99 133 28 153 99 l 172 99 b 183 125 179 99 183 124 l 226 497 b 397 -54 349 106 286 310 z "},"N":{"ha":754,"x_min":0,"x_max":0,"o":"m 3 -22 b 31 6 7 -22 15 -19 b 89 46 47 35 71 46 l 97 44 b 121 22 115 40 110 24 b 171 90 133 22 153 90 l 172 90 b 182 114 179 90 182 114 l 239 599 l 490 0 l 650 0 l 735 833 b 753 1004 746 949 739 888 l 751 1004 b 724 974 747 1004 739 1001 b 701 944 717 961 710 951 b 664 926 689 932 676 926 l 657 928 b 640 944 646 931 643 939 b 632 953 639 949 638 951 b 625 944 631 953 628 950 b 582 876 613 925 597 876 b 572 850 575 876 572 850 l 521 353 l 275 944 l 115 944 l 1 -22 z "},"O":{"ha":696,"x_min":0,"x_max":0,"o":"m 360 0 l 628 367 l 694 701 l 382 990 l 271 871 l 285 858 b 153 781 253 840 174 781 l 147 782 b 124 767 144 782 133 775 l 99 746 l 65 715 l 1 393 l 156 0 z m 308 804 b 285 814 296 804 288 807 b 283 821 283 815 283 818 b 296 849 283 829 290 840 l 339 808 b 308 804 326 806 317 804 z m 278 163 l 267 163 l 171 408 l 215 631 l 372 778 l 517 644 l 475 433 z "},"P":{"ha":657,"x_min":0,"x_max":0,"o":"m 185 0 l 213 243 l 263 243 l 264 242 l 308 239 l 314 238 l 324 238 b 389 236 367 238 346 238 b 440 282 424 267 408 250 b 444 285 443 285 442 285 l 458 297 l 458 311 l 656 500 l 597 742 l 386 944 l 1 944 l 1 943 b 40 919 1 942 4 932 b 96 863 81 904 96 881 l 96 858 b 72 831 94 839 72 843 b 140 806 72 824 114 815 b 119 785 133 794 126 785 l 118 785 b 108 763 111 785 108 763 l 21 0 z m 322 399 l 233 399 l 276 776 l 319 776 b 324 771 322 775 321 775 b 443 646 404 688 439 657 l 453 651 l 478 547 z "},"Q":{"ha":688,"x_min":0,"x_max":0,"o":"m 207 -133 b 232 -119 210 -133 219 -132 b 292 -99 247 -104 274 -99 b 317 -107 308 -100 306 -107 b 358 -75 328 -107 339 -75 b 365 -65 365 -75 365 -65 l 365 0 l 621 371 l 686 704 l 376 990 l 269 875 l 285 861 b 150 781 254 844 169 781 l 144 782 b 121 767 142 782 131 775 l 99 747 l 65 715 l 1 396 l 154 0 l 207 0 z m 304 806 b 281 815 292 806 283 810 l 279 821 b 293 853 279 832 289 843 l 336 813 b 304 806 324 808 313 806 z m 361 256 l 215 256 l 164 411 l 210 635 l 369 783 l 515 647 l 474 436 z "},"R":{"ha":654,"x_min":0,"x_max":0,"o":"m 399 -39 b 410 -12 399 -39 407 -35 b 443 42 413 8 429 31 b 469 53 458 53 460 46 b 482 104 478 61 467 92 b 483 108 483 106 483 107 b 481 117 483 113 481 117 l 374 239 l 388 239 l 439 285 b 442 288 440 288 439 288 l 456 300 l 456 314 l 653 501 l 594 743 l 385 944 l 1 944 l 1 943 b 40 919 1 942 4 932 b 96 863 81 904 96 881 l 96 858 b 72 831 93 839 72 843 b 139 806 72 824 113 815 b 117 785 132 793 125 785 b 108 763 111 785 108 763 l 19 0 l 185 0 l 206 185 z m 319 408 l 231 408 l 274 782 l 317 782 b 321 776 319 781 319 779 l 439 653 l 447 658 l 472 556 z "},"S":{"ha":551,"x_min":0,"x_max":0,"o":"m 300 0 b 306 8 303 6 306 8 l 414 196 b 486 311 460 271 436 236 l 488 315 l 514 357 l 517 558 l 414 560 b 386 550 404 557 394 554 l 206 550 l 340 783 l 550 783 l 550 785 b 540 808 550 788 549 796 b 525 868 529 824 525 850 b 532 893 526 886 532 882 b 508 935 532 904 508 917 b 501 942 508 942 501 942 l 289 942 b 285 943 288 943 286 943 l 247 944 l 207 878 b 190 853 197 861 203 868 l 136 767 l 138 751 l 40 583 l 40 392 l 344 392 l 208 158 l 1 158 l 1 157 b 11 133 1 154 3 147 b 26 74 22 118 26 92 b 19 49 25 56 19 60 b 43 7 19 38 43 26 b 50 0 43 0 50 0 z "},"T":{"ha":817,"x_min":0,"x_max":0,"o":"m 231 -29 b 258 -3 235 -29 244 -26 b 317 35 275 24 299 35 l 325 33 b 349 13 343 29 338 14 b 400 76 361 13 381 76 b 410 99 407 76 410 99 l 486 771 l 815 771 b 792 799 815 771 796 778 l 790 810 b 800 842 790 828 800 842 l 800 851 b 775 894 800 851 783 865 b 772 914 772 901 772 908 b 779 933 772 928 779 933 l 643 933 l 482 944 l 476 933 l 53 933 l 53 921 b 1 889 53 896 1 904 b 36 846 1 875 22 893 b 44 792 43 824 44 804 b 43 771 44 778 43 771 l 111 771 l 111 768 l 206 760 l 213 771 l 322 771 b 229 -29 263 254 289 499 z "},"U":{"ha":690,"x_min":0,"x_max":0,"o":"m 114 0 l 431 79 l 451 83 b 543 106 511 100 481 90 l 547 106 b 553 108 549 106 550 106 b 594 163 564 121 579 163 l 596 163 b 606 182 603 163 606 182 l 689 914 l 676 915 b 653 975 651 918 667 974 l 651 975 b 606 942 639 975 651 951 b 568 938 592 939 579 938 b 529 943 543 938 529 943 l 450 250 l 210 190 l 225 268 l 215 276 l 296 969 l 294 969 b 267 946 290 969 282 967 b 210 913 250 921 226 913 l 203 913 b 178 932 185 917 189 931 b 131 876 167 932 149 876 l 129 876 b 119 856 122 876 119 856 b 78 586 100 679 111 776 l 88 578 l 42 186 b 1 138 36 136 49 150 b 24 117 1 138 1 128 b 63 64 46 106 58 82 l 63 58 b 58 40 63 47 58 46 l 58 36 b 107 4 61 25 101 24 b 114 0 107 1 111 0 z "},"V":{"ha":757,"x_min":0,"x_max":0,"o":"m 328 0 b 756 976 596 611 476 332 l 753 978 b 718 953 749 978 738 974 b 658 924 696 932 675 924 b 639 928 650 924 644 925 b 624 960 624 938 635 956 l 622 960 b 553 899 613 960 572 899 l 549 899 b 532 875 543 899 532 875 l 276 290 l 131 992 b 113 954 129 992 121 990 b 61 893 104 914 81 894 l 60 893 b 35 907 44 893 43 907 l 32 907 b 6 824 19 906 24 828 b 1 811 3 824 1 818 l 3 797 l 169 0 z "},"W":{"ha":1108,"x_min":0,"x_max":0,"o":"m 757 0 l 761 11 l 763 11 l 763 14 l 1107 946 l 1104 947 b 1071 922 1100 947 1090 943 b 1013 892 1050 900 1029 892 b 994 896 1006 892 999 893 b 978 925 978 904 989 921 l 976 925 b 913 865 965 925 931 865 l 908 865 b 893 842 901 865 893 842 l 714 357 l 626 986 b 606 950 624 986 615 985 l 601 938 b 586 922 597 933 592 929 b 543 894 571 907 557 899 b 524 910 532 899 532 910 l 522 910 b 514 894 518 910 517 903 l 510 896 b 493 925 493 904 504 921 l 492 925 b 428 865 481 925 446 865 l 424 865 b 408 842 417 865 408 842 l 229 357 l 142 986 b 121 950 139 986 131 985 b 67 893 110 911 85 894 b 39 910 49 893 49 910 l 38 910 b 6 829 25 908 25 832 b 1 814 1 828 1 821 l 1 803 l 110 32 l 108 28 l 110 28 l 114 0 l 272 0 l 276 11 l 278 11 l 278 14 l 508 640 l 594 32 l 593 28 l 594 28 l 599 0 z "},"X":{"ha":832,"x_min":0,"x_max":0,"o":"m 651 -58 b 656 -51 654 -57 656 -54 b 651 -31 656 -47 651 -40 b 667 4 651 -22 654 -11 b 731 50 700 43 731 50 l 686 128 l 686 131 l 633 244 l 619 246 l 517 429 b 821 842 715 699 622 569 l 810 849 b 804 860 806 851 804 856 b 831 924 804 879 831 911 b 829 928 831 925 831 926 l 825 929 b 782 911 817 929 810 911 l 764 914 b 696 951 714 926 696 951 b 428 588 515 704 597 817 b 200 992 276 853 346 729 b 192 967 200 992 192 990 l 193 938 b 163 876 193 904 179 883 l 156 875 b 133 882 146 875 140 882 l 129 881 b 126 874 128 879 126 876 b 135 810 126 858 135 829 b 129 793 135 801 133 796 b 126 789 128 793 126 790 b 135 767 126 781 135 767 b 290 471 243 579 186 681 l 303 469 l 319 440 l 1 10 b 7 8 1 10 3 8 b 43 24 11 8 22 11 b 93 39 63 35 79 39 b 125 29 107 39 118 35 b 132 15 131 25 132 19 l 131 3 b 133 -4 131 0 131 -3 l 136 -4 b 213 38 149 -4 193 38 l 219 36 b 240 54 226 36 240 54 l 408 282 b 578 -19 528 72 471 179 l 590 -12 l 596 -11 b 650 -58 615 -11 638 -58 z "},"Y":{"ha":690,"x_min":0,"x_max":0,"o":"m 117 -28 b 142 -18 121 -28 129 -26 b 186 -4 154 -8 171 -4 l 207 -7 b 231 -24 225 -12 219 -21 l 232 -24 b 279 4 243 -24 261 4 l 283 4 b 292 15 288 4 292 15 l 354 275 l 689 943 b 683 944 689 943 688 944 b 656 932 678 944 669 943 b 613 918 640 922 626 918 b 583 926 601 918 590 922 b 567 953 568 936 576 947 l 564 953 b 506 918 553 953 524 918 l 500 919 b 486 906 494 919 486 906 l 308 550 b 110 1013 172 869 242 708 b 96 982 110 1013 100 1013 b 53 925 92 951 71 932 l 44 924 b 26 929 36 924 32 929 l 22 928 b 4 861 13 924 22 869 b 1 856 3 860 1 858 b 6 842 1 850 6 842 l 207 369 l 113 -28 z "},"Z":{"ha":551,"x_min":0,"x_max":0,"o":"m 469 0 b 454 25 469 3 468 13 b 432 81 438 40 432 63 l 432 86 b 440 113 432 104 440 101 b 406 156 440 124 406 136 b 393 163 406 163 393 163 l 164 163 l 164 190 b 299 350 250 296 214 251 l 294 363 l 550 697 l 550 804 l 542 804 l 542 944 l 83 944 l 83 943 b 99 919 83 939 85 931 b 121 863 114 904 121 881 l 121 858 b 111 832 119 840 111 843 b 146 789 111 821 146 808 b 158 782 146 782 158 782 l 388 782 l 388 754 l 385 753 l 382 753 b 342 707 353 724 372 743 l 344 696 l 1 244 l 1 81 b 11 96 1 81 4 89 l 11 0 z "},"[":{"ha":344,"x_min":0,"x_max":0,"o":"m 297 -3 l 297 -1 b 290 22 297 3 297 11 b 279 76 283 36 279 58 l 279 85 b 283 111 279 103 283 100 b 265 154 283 122 265 135 b 260 161 265 161 260 161 l 174 161 b 175 163 174 161 174 163 l 211 778 l 343 778 b 335 804 343 778 343 788 b 324 865 326 821 324 847 b 328 892 324 885 328 881 b 311 935 328 904 311 915 b 304 942 311 942 304 942 l 222 942 b 224 944 222 944 224 944 l 56 944 b 1 0 21 346 39 631 l 67 0 l 67 -3 z "},"\\":{"ha":467,"x_min":0,"x_max":0,"o":"m 463 -44 l 465 -44 b 181 899 274 588 381 238 l 154 983 b 94 971 154 983 135 971 l 79 971 b 26 1001 32 975 38 1001 l 24 1001 b 19 992 21 1000 19 997 b 25 949 19 981 25 963 b 14 926 25 938 22 929 l 1 924 b 261 64 176 356 101 594 b 275 42 261 64 268 42 l 279 42 b 339 -19 297 42 326 -19 b 358 8 350 -15 342 1 b 374 11 363 10 368 11 b 432 -21 390 11 413 3 b 463 -44 450 -42 460 -44 z "},"]":{"ha":344,"x_min":0,"x_max":0,"o":"m 47 944 l 47 943 b 54 919 47 939 49 931 b 65 865 61 906 65 883 l 65 857 b 61 831 65 839 61 842 b 79 788 61 819 79 807 b 85 781 79 781 85 781 l 171 781 b 169 779 171 781 171 779 l 133 164 l 1 164 b 10 138 1 164 1 154 b 21 76 18 121 21 94 b 17 50 21 57 17 61 b 33 7 17 38 33 26 b 40 0 33 0 40 0 l 122 0 b 121 -3 122 -3 121 -3 l 289 -3 b 343 942 324 596 306 311 l 278 942 l 278 944 z "},"_":{"ha":1140,"x_min":0,"x_max":0,"o":"m 1139 0 l 1139 1 b 1106 26 1139 4 1136 13 b 1057 85 1069 40 1057 67 l 1057 88 b 1078 114 1060 106 1078 103 b 1001 157 1078 126 1001 138 b 975 164 1001 164 975 164 l 71 164 l 71 150 b 1 119 71 125 1 135 b 49 76 1 106 29 122 b 60 22 57 54 60 35 b 57 0 60 8 57 0 z "},"a":{"ha":669,"x_min":0,"x_max":0,"o":"m 533 -40 b 553 -4 536 -40 544 -37 b 606 54 563 35 586 53 l 607 54 b 632 39 622 54 624 39 l 635 39 b 664 121 646 40 644 117 b 668 133 667 121 668 126 l 667 147 l 531 944 l 372 944 l 1 3 l 4 3 b 38 26 8 3 18 6 b 96 56 58 47 79 56 b 114 51 103 56 108 54 b 131 22 131 42 121 26 l 132 22 b 197 81 144 22 179 81 l 201 81 b 217 103 208 81 217 103 l 283 272 l 479 272 z m 472 313 b 449 358 463 328 449 344 l 449 360 b 451 386 449 378 451 375 b 438 429 451 399 438 410 b 433 436 438 436 433 436 l 349 436 l 421 618 z "},"b":{"ha":683,"x_min":0,"x_max":0,"o":"m 194 0 b 217 6 201 0 217 6 l 674 203 l 674 389 l 543 426 l 682 563 l 629 774 l 444 944 l 121 944 l 121 943 b 153 915 121 939 124 928 b 201 858 188 900 201 876 l 201 856 b 182 829 199 838 182 840 b 256 789 182 818 256 808 b 281 782 256 782 281 782 l 331 783 b 288 765 317 771 301 765 l 279 767 b 254 785 261 771 267 783 b 207 733 243 785 225 733 l 204 733 b 197 715 199 733 197 715 l 126 142 l 1 88 b 42 78 1 88 1 78 b 111 42 83 78 106 60 l 113 36 b 103 13 113 25 103 21 l 103 10 b 115 7 104 7 108 7 l 163 10 b 190 1 176 10 188 8 b 194 0 190 0 192 0 z m 297 215 l 311 328 l 486 285 z m 332 496 l 367 783 l 381 783 b 383 779 383 782 383 781 b 476 683 394 765 411 751 l 485 688 l 504 613 l 386 497 z "},"c":{"ha":567,"x_min":0,"x_max":0,"o":"m 464 0 b 454 25 464 0 464 10 b 440 79 444 40 440 61 l 440 86 b 446 113 440 104 446 101 b 424 154 446 124 424 135 b 417 161 424 161 417 161 l 267 161 l 179 386 l 169 385 l 206 588 l 388 776 l 565 776 l 565 778 b 557 801 565 781 564 789 b 546 854 550 815 546 836 l 546 861 b 550 888 546 881 550 876 b 532 931 550 900 532 911 b 525 938 532 938 525 938 l 449 938 l 450 944 l 326 944 l 306 924 l 304 924 l 182 810 l 182 796 l 56 664 l 1 365 l 161 0 z "},"d":{"ha":622,"x_min":0,"x_max":0,"o":"m 269 -4 b 325 47 304 28 289 11 b 369 86 353 75 336 58 l 371 101 l 621 347 l 572 657 l 371 944 l 76 944 l 76 943 b 119 919 76 940 81 932 b 182 861 164 904 182 879 l 182 857 b 156 831 179 839 156 842 b 239 800 156 821 213 813 l 229 789 b 172 757 213 765 189 757 l 164 757 b 139 776 146 761 150 775 b 90 722 128 776 108 722 l 89 722 b 79 703 82 722 79 703 l 1 58 l 53 51 b 57 22 57 40 57 31 b 54 1 57 10 54 1 l 171 1 l 172 0 l 196 -1 z m 201 165 l 181 165 l 256 785 b 281 781 258 782 281 781 l 285 781 b 410 593 371 658 336 708 l 408 590 l 418 511 l 431 503 l 446 406 z "},"e":{"ha":565,"x_min":0,"x_max":0,"o":"m 463 0 b 453 25 463 0 463 10 b 439 79 443 40 439 61 l 439 86 b 444 113 439 104 444 101 b 422 154 444 124 422 135 b 415 161 422 161 415 161 l 265 161 l 260 174 b 185 369 207 304 238 232 b 179 385 181 379 179 375 l 178 385 l 178 386 l 174 385 l 168 385 l 174 413 l 325 413 b 317 438 325 413 325 422 b 307 489 310 451 307 472 l 307 499 b 311 525 307 517 311 514 b 294 567 311 536 294 547 b 289 574 294 574 289 574 l 201 574 l 204 588 l 386 776 l 564 776 l 564 778 b 556 801 564 781 563 789 b 544 854 549 815 544 836 l 544 861 b 549 888 544 881 549 876 b 531 931 549 900 531 911 b 524 938 531 938 524 938 l 447 938 l 449 944 l 325 944 l 304 924 l 303 924 b 181 810 224 849 261 885 l 181 796 l 54 664 l 1 365 l 160 0 z "},"f":{"ha":654,"x_min":0,"x_max":0,"o":"m 1 -4 l 163 0 l 210 397 l 396 397 l 396 399 b 389 422 396 401 396 410 b 376 475 381 436 376 457 l 376 482 b 381 508 376 500 381 497 b 363 550 381 519 363 532 b 356 557 363 557 356 557 l 229 557 l 254 769 l 317 764 l 321 774 l 615 774 l 615 788 b 653 818 615 811 653 803 b 628 860 653 832 638 814 b 622 911 624 881 622 899 b 624 935 622 926 624 935 l 575 935 l 575 936 l 510 944 l 504 935 l 56 935 l 56 933 b 72 910 56 931 57 922 b 99 849 92 893 99 867 b 88 822 97 831 88 835 b 128 781 88 811 128 800 b 136 774 128 776 132 775 b 96 722 125 760 111 722 l 94 722 b 85 701 88 722 85 701 z m 176 758 l 168 760 b 151 774 157 763 154 769 l 214 774 b 176 758 200 764 188 758 z "},"g":{"ha":668,"x_min":0,"x_max":0,"o":"m 244 0 l 247 1 b 522 175 426 117 332 56 l 667 544 l 343 544 l 343 543 b 368 519 343 540 346 532 b 406 463 396 506 406 481 l 406 460 b 390 433 404 442 390 444 b 419 415 390 428 404 422 l 432 408 l 432 407 l 433 404 l 433 400 l 432 385 l 431 385 l 392 282 l 240 188 b 182 369 200 310 225 233 b 176 385 178 379 176 375 l 167 385 l 199 592 l 354 776 l 503 776 b 496 801 503 776 503 786 b 485 863 488 818 485 843 b 489 889 486 881 489 876 b 474 931 489 900 474 911 b 468 938 474 938 468 938 l 396 938 l 397 944 l 286 944 b 256 908 267 921 278 931 l 253 908 b 149 797 188 833 224 876 l 150 783 l 47 661 l 1 367 l 138 1 l 243 1 z "},"h":{"ha":703,"x_min":0,"x_max":0,"o":"m 432 -29 b 464 -3 432 -29 440 -7 l 468 -3 b 503 -19 489 -3 503 -19 l 514 -21 b 560 7 514 -21 529 -1 l 574 10 b 597 -3 592 10 597 -3 b 650 368 628 240 610 128 l 642 378 l 694 836 l 701 908 l 689 910 b 665 979 664 913 681 978 l 664 979 b 618 940 651 979 664 953 b 578 935 603 936 589 935 b 543 940 556 935 543 940 l 533 854 l 531 854 l 508 736 l 518 726 l 489 475 l 488 496 l 488 504 b 493 531 488 522 493 519 b 443 574 493 542 443 554 b 436 581 443 581 436 581 l 235 581 b 272 911 263 814 250 694 l 260 913 b 236 979 235 915 250 978 l 235 979 b 189 942 222 979 235 954 b 151 938 175 939 161 938 b 113 943 126 938 113 943 l 104 863 b 1 -29 33 256 68 563 l 3 -29 b 31 -3 7 -29 15 -26 b 88 36 47 25 69 36 l 96 35 b 119 14 114 31 108 14 b 168 76 131 14 150 76 l 169 76 b 179 100 176 76 179 100 l 215 418 l 483 418 z "},"i":{"ha":269,"x_min":0,"x_max":0,"o":"m 3 -49 b 31 -21 6 -49 14 -46 b 86 19 47 8 69 19 l 94 18 b 119 -3 113 14 108 -3 b 168 63 131 -3 150 63 b 178 86 175 63 178 86 l 268 918 l 256 919 b 232 988 231 922 246 985 l 231 988 b 185 949 218 988 231 961 b 144 943 169 944 156 943 b 110 949 122 943 110 949 l 101 865 l 1 -49 z "},"j":{"ha":754,"x_min":0,"x_max":0,"o":"m 526 -6 l 685 343 l 753 969 l 751 969 b 725 950 747 969 739 968 b 671 921 708 929 688 921 l 660 922 b 635 939 642 925 646 938 b 588 890 624 939 606 890 l 585 890 b 578 874 579 890 578 874 l 525 388 l 421 158 l 235 158 l 299 338 l 296 339 b 264 315 292 339 283 335 b 208 288 244 294 224 288 b 189 292 200 288 194 289 b 171 319 172 300 182 315 l 169 319 b 107 263 158 319 126 263 l 103 263 b 89 240 97 263 89 240 l 90 240 l 1 -6 z "},"k":{"ha":674,"x_min":0,"x_max":0,"o":"m 622 -43 b 626 -26 622 -43 626 -40 b 625 -10 626 -22 626 -17 l 622 7 b 643 57 622 28 632 46 b 671 68 657 69 663 60 l 672 72 b 661 121 672 83 661 104 b 664 132 661 125 661 129 l 665 135 b 657 149 665 140 657 147 l 600 199 l 508 297 l 497 293 l 251 517 l 635 865 b 617 871 635 865 632 871 l 600 869 l 588 868 b 535 893 564 868 544 881 b 529 907 531 899 529 903 l 529 914 b 526 922 529 917 529 919 b 521 924 525 924 524 924 b 474 915 511 924 489 915 b 460 919 468 915 463 915 l 457 921 b 446 915 454 921 449 918 l 253 740 l 264 833 l 261 835 l 264 833 l 272 900 l 258 901 b 235 967 233 904 249 964 l 233 967 b 186 931 221 967 233 942 b 146 925 171 926 157 925 b 110 931 122 925 110 931 l 101 853 b 60 499 72 601 90 731 l 1 -17 l 3 -17 b 31 10 6 -17 14 -14 b 89 46 47 36 71 46 l 96 46 b 121 25 114 42 110 26 b 169 86 132 25 151 86 l 171 86 b 181 108 178 86 181 108 b 207 336 199 264 188 185 b 546 26 432 129 307 244 z "},"l":{"ha":504,"x_min":0,"x_max":0,"o":"m 503 0 b 486 25 503 3 501 11 b 461 82 468 40 461 64 l 461 88 b 471 114 463 106 471 101 b 433 157 471 125 433 136 b 419 164 433 164 419 164 l 179 164 l 271 961 l 269 961 b 243 933 267 961 258 958 b 185 893 225 904 203 893 l 176 894 b 151 917 158 899 164 915 b 103 850 140 917 121 850 l 101 850 b 92 826 94 850 92 826 l 1 43 l 1 0 z "},"m":{"ha":907,"x_min":0,"x_max":0,"o":"m 397 -54 b 413 -18 397 -54 407 -54 b 458 43 418 19 440 39 l 463 43 b 488 33 475 43 479 33 l 490 33 b 510 111 501 36 492 106 b 513 119 513 113 513 115 b 510 136 513 126 510 136 l 508 140 l 688 482 l 647 143 l 629 -19 l 631 -19 b 658 10 633 -19 643 -17 b 717 53 675 40 699 53 l 725 51 b 749 28 743 47 738 29 b 799 99 761 28 781 99 l 800 99 b 811 125 807 99 811 125 l 906 944 l 743 944 l 440 363 l 261 944 l 113 944 l 1 -19 l 3 -19 b 31 10 6 -19 15 -17 b 89 53 47 40 71 53 l 97 51 b 121 28 115 47 110 29 b 171 99 133 28 153 99 l 172 99 b 183 125 179 99 183 124 l 226 497 b 397 -54 349 106 286 310 z "},"n":{"ha":754,"x_min":0,"x_max":0,"o":"m 3 -22 b 31 6 7 -22 15 -19 b 89 46 47 35 71 46 l 97 44 b 121 22 115 40 110 24 b 171 90 133 22 153 90 l 172 90 b 182 114 179 90 182 114 l 239 599 l 490 0 l 650 0 l 735 833 b 753 1004 746 949 739 888 l 751 1004 b 724 974 747 1004 739 1001 b 701 944 717 961 710 951 b 664 926 689 932 676 926 l 657 928 b 640 944 646 931 643 939 b 632 953 639 949 638 951 b 625 944 631 953 628 950 b 582 876 613 925 597 876 b 572 850 575 876 572 850 l 521 353 l 275 944 l 115 944 l 1 -22 z "},"o":{"ha":696,"x_min":0,"x_max":0,"o":"m 360 0 l 628 367 l 694 701 l 382 990 l 271 871 l 285 858 b 153 781 253 840 174 781 l 147 782 b 124 767 144 782 133 775 l 99 746 l 65 715 l 1 393 l 156 0 z m 308 804 b 285 814 296 804 288 807 b 283 821 283 815 283 818 b 296 849 283 829 290 840 l 339 808 b 308 804 326 806 317 804 z m 278 163 l 267 163 l 171 408 l 215 631 l 372 778 l 517 644 l 475 433 z "},"p":{"ha":657,"x_min":0,"x_max":0,"o":"m 185 0 l 213 243 l 263 243 l 264 242 l 308 239 l 314 238 l 324 238 b 389 236 367 238 346 238 b 440 282 424 267 408 250 b 444 285 443 285 442 285 l 458 297 l 458 311 l 656 500 l 597 742 l 386 944 l 1 944 l 1 943 b 40 919 1 942 4 932 b 96 863 81 904 96 881 l 96 858 b 72 831 94 839 72 843 b 140 806 72 824 114 815 b 119 785 133 794 126 785 l 118 785 b 108 763 111 785 108 763 l 21 0 z m 322 399 l 233 399 l 276 776 l 319 776 b 324 771 322 775 321 775 b 443 646 404 688 439 657 l 453 651 l 478 547 z "},"q":{"ha":688,"x_min":0,"x_max":0,"o":"m 207 -133 b 232 -119 210 -133 219 -132 b 292 -99 247 -104 274 -99 b 317 -107 308 -100 306 -107 b 358 -75 328 -107 339 -75 b 365 -65 365 -75 365 -65 l 365 0 l 621 371 l 686 704 l 376 990 l 269 875 l 285 861 b 150 781 254 844 169 781 l 144 782 b 121 767 142 782 131 775 l 99 747 l 65 715 l 1 396 l 154 0 l 207 0 z m 304 806 b 281 815 292 806 283 810 l 279 821 b 293 853 279 832 289 843 l 336 813 b 304 806 324 808 313 806 z m 361 256 l 215 256 l 164 411 l 210 635 l 369 783 l 515 647 l 474 436 z "},"r":{"ha":654,"x_min":0,"x_max":0,"o":"m 399 -39 b 410 -12 399 -39 407 -35 b 443 42 413 8 429 31 b 469 53 458 53 460 46 b 482 104 478 61 467 92 b 483 108 483 106 483 107 b 481 117 483 113 481 117 l 374 239 l 388 239 l 439 285 b 442 288 440 288 439 288 l 456 300 l 456 314 l 653 501 l 594 743 l 385 944 l 1 944 l 1 943 b 40 919 1 942 4 932 b 96 863 81 904 96 881 l 96 858 b 72 831 93 839 72 843 b 139 806 72 824 113 815 b 117 785 132 793 125 785 b 108 763 111 785 108 763 l 19 0 l 185 0 l 206 185 z m 319 408 l 231 408 l 274 782 l 317 782 b 321 776 319 781 319 779 l 439 653 l 447 658 l 472 556 z "},"s":{"ha":551,"x_min":0,"x_max":0,"o":"m 300 0 b 306 8 303 6 306 8 l 414 196 b 486 311 460 271 436 236 l 488 315 l 514 357 l 517 558 l 414 560 b 386 550 404 557 394 554 l 206 550 l 340 783 l 550 783 l 550 785 b 540 808 550 788 549 796 b 525 868 529 824 525 850 b 532 893 526 886 532 882 b 508 935 532 904 508 917 b 501 942 508 942 501 942 l 289 942 b 285 943 288 943 286 943 l 247 944 l 207 878 b 190 853 197 861 203 868 l 136 767 l 138 751 l 40 583 l 40 392 l 344 392 l 208 158 l 1 158 l 1 157 b 11 133 1 154 3 147 b 26 74 22 118 26 92 b 19 49 25 56 19 60 b 43 7 19 38 43 26 b 50 0 43 0 50 0 z "},"t":{"ha":817,"x_min":0,"x_max":0,"o":"m 231 -29 b 258 -3 235 -29 244 -26 b 317 35 275 24 299 35 l 325 33 b 349 13 343 29 338 14 b 400 76 361 13 381 76 b 410 99 407 76 410 99 l 486 771 l 815 771 b 792 799 815 771 796 778 l 790 810 b 800 842 790 828 800 842 l 800 851 b 775 894 800 851 783 865 b 772 914 772 901 772 908 b 779 933 772 928 779 933 l 643 933 l 482 944 l 476 933 l 53 933 l 53 921 b 1 889 53 896 1 904 b 36 846 1 875 22 893 b 44 792 43 824 44 804 b 43 771 44 778 43 771 l 111 771 l 111 768 l 206 760 l 213 771 l 322 771 b 229 -29 263 254 289 499 z "},"u":{"ha":690,"x_min":0,"x_max":0,"o":"m 114 0 l 431 79 l 451 83 b 543 106 511 100 481 90 l 547 106 b 553 108 549 106 550 106 b 594 163 564 121 579 163 l 596 163 b 606 182 603 163 606 182 l 689 914 l 676 915 b 653 975 651 918 667 974 l 651 975 b 606 942 639 975 651 951 b 568 938 592 939 579 938 b 529 943 543 938 529 943 l 450 250 l 210 190 l 225 268 l 215 276 l 296 969 l 294 969 b 267 946 290 969 282 967 b 210 913 250 921 226 913 l 203 913 b 178 932 185 917 189 931 b 131 876 167 932 149 876 l 129 876 b 119 856 122 876 119 856 b 78 586 100 679 111 776 l 88 578 l 42 186 b 1 138 36 136 49 150 b 24 117 1 138 1 128 b 63 64 46 106 58 82 l 63 58 b 58 40 63 47 58 46 l 58 36 b 107 4 61 25 101 24 b 114 0 107 1 111 0 z "},"v":{"ha":757,"x_min":0,"x_max":0,"o":"m 328 0 b 756 976 596 611 476 332 l 753 978 b 718 953 749 978 738 974 b 658 924 696 932 675 924 b 639 928 650 924 644 925 b 624 960 624 938 635 956 l 622 960 b 553 899 613 960 572 899 l 549 899 b 532 875 543 899 532 875 l 276 290 l 131 992 b 113 954 129 992 121 990 b 61 893 104 914 81 894 l 60 893 b 35 907 44 893 43 907 l 32 907 b 6 824 19 906 24 828 b 1 811 3 824 1 818 l 3 797 l 169 0 z "},"w":{"ha":1108,"x_min":0,"x_max":0,"o":"m 757 0 l 761 11 l 763 11 l 763 14 l 1107 946 l 1104 947 b 1071 922 1100 947 1090 943 b 1013 892 1050 900 1029 892 b 994 896 1006 892 999 893 b 978 925 978 904 989 921 l 976 925 b 913 865 965 925 931 865 l 908 865 b 893 842 901 865 893 842 l 714 357 l 626 986 b 606 950 624 986 615 985 l 601 938 b 586 922 597 933 592 929 b 543 894 571 907 557 899 b 524 910 532 899 532 910 l 522 910 b 514 894 518 910 517 903 l 510 896 b 493 925 493 904 504 921 l 492 925 b 428 865 481 925 446 865 l 424 865 b 408 842 417 865 408 842 l 229 357 l 142 986 b 121 950 139 986 131 985 b 67 893 110 911 85 894 b 39 910 49 893 49 910 l 38 910 b 6 829 25 908 25 832 b 1 814 1 828 1 821 l 1 803 l 110 32 l 108 28 l 110 28 l 114 0 l 272 0 l 276 11 l 278 11 l 278 14 l 508 640 l 594 32 l 593 28 l 594 28 l 599 0 z "},"x":{"ha":832,"x_min":0,"x_max":0,"o":"m 651 -58 b 656 -51 654 -57 656 -54 b 651 -31 656 -47 651 -40 b 667 4 651 -22 654 -11 b 731 50 700 43 731 50 l 686 128 l 686 131 l 633 244 l 619 246 l 517 429 b 821 842 715 699 622 569 l 810 849 b 804 860 806 851 804 856 b 831 924 804 879 831 911 b 829 928 831 925 831 926 l 825 929 b 782 911 817 929 810 911 l 764 914 b 696 951 714 926 696 951 b 428 588 515 704 597 817 b 200 992 276 853 346 729 b 192 967 200 992 192 990 l 193 938 b 163 876 193 904 179 883 l 156 875 b 133 882 146 875 140 882 l 129 881 b 126 874 128 879 126 876 b 135 810 126 858 135 829 b 129 793 135 801 133 796 b 126 789 128 793 126 790 b 135 767 126 781 135 767 b 290 471 243 579 186 681 l 303 469 l 319 440 l 1 10 b 7 8 1 10 3 8 b 43 24 11 8 22 11 b 93 39 63 35 79 39 b 125 29 107 39 118 35 b 132 15 131 25 132 19 l 131 3 b 133 -4 131 0 131 -3 l 136 -4 b 213 38 149 -4 193 38 l 219 36 b 240 54 226 36 240 54 l 408 282 b 578 -19 528 72 471 179 l 590 -12 l 596 -11 b 650 -58 615 -11 638 -58 z "},"y":{"ha":690,"x_min":0,"x_max":0,"o":"m 117 -28 b 142 -18 121 -28 129 -26 b 186 -4 154 -8 171 -4 l 207 -7 b 231 -24 225 -12 219 -21 l 232 -24 b 279 4 243 -24 261 4 l 283 4 b 292 15 288 4 292 15 l 354 275 l 689 943 b 683 944 689 943 688 944 b 656 932 678 944 669 943 b 613 918 640 922 626 918 b 583 926 601 918 590 922 b 567 953 568 936 576 947 l 564 953 b 506 918 553 953 524 918 l 500 919 b 486 906 494 919 486 906 l 308 550 b 110 1013 172 869 242 708 b 96 982 110 1013 100 1013 b 53 925 92 951 71 932 l 44 924 b 26 929 36 924 32 929 l 22 928 b 4 861 13 924 22 869 b 1 856 3 860 1 858 b 6 842 1 850 6 842 l 207 369 l 113 -28 z "},"z":{"ha":551,"x_min":0,"x_max":0,"o":"m 469 0 b 454 25 469 3 468 13 b 432 81 438 40 432 63 l 432 86 b 440 113 432 104 440 101 b 406 156 440 124 406 136 b 393 163 406 163 393 163 l 164 163 l 164 190 b 299 350 250 296 214 251 l 294 363 l 550 697 l 550 804 l 542 804 l 542 944 l 83 944 l 83 943 b 99 919 83 939 85 931 b 121 863 114 904 121 881 l 121 858 b 111 832 119 840 111 843 b 146 789 111 821 146 808 b 158 782 146 782 158 782 l 388 782 l 388 754 l 385 753 l 382 753 b 342 707 353 724 372 743 l 344 696 l 1 244 l 1 81 b 11 96 1 81 4 89 l 11 0 z "},"{":{"ha":381,"x_min":0,"x_max":0,"o":""},"|":{"ha":167,"x_min":0,"x_max":0,"o":""},"}":{"ha":381,"x_min":0,"x_max":0,"o":""},"¡":{"ha":265,"x_min":0,"x_max":0,"o":""},"¢":{"ha":379,"x_min":0,"x_max":0,"o":""},"£":{"ha":610,"x_min":0,"x_max":0,"o":""},"¥":{"ha":692,"x_min":0,"x_max":0,"o":""},"©":{"ha":993,"x_min":0,"x_max":0,"o":""},"®":{"ha":993,"x_min":0,"x_max":0,"o":""},"¿":{"ha":536,"x_min":0,"x_max":0,"o":""},"À":{"ha":669,"x_min":0,"x_max":0,"o":""},"Á":{"ha":669,"x_min":0,"x_max":0,"o":""},"Â":{"ha":671,"x_min":0,"x_max":0,"o":""},"Ã":{"ha":669,"x_min":0,"x_max":0,"o":""},"Ä":{"ha":669,"x_min":0,"x_max":0,"o":""},"Å":{"ha":671,"x_min":0,"x_max":0,"o":""},"Æ":{"ha":1028,"x_min":0,"x_max":0,"o":""},"Ç":{"ha":565,"x_min":0,"x_max":0,"o":""},"È":{"ha":567,"x_min":0,"x_max":0,"o":""},"É":{"ha":565,"x_min":0,"x_max":0,"o":""},"Ê":{"ha":565,"x_min":0,"x_max":0,"o":""},"Ë":{"ha":567,"x_min":0,"x_max":0,"o":""},"Ì":{"ha":279,"x_min":0,"x_max":0,"o":""},"Í":{"ha":281,"x_min":0,"x_max":0,"o":""},"Î":{"ha":332,"x_min":0,"x_max":0,"o":""},"Ï":{"ha":326,"x_min":0,"x_max":0,"o":""},"Ñ":{"ha":753,"x_min":0,"x_max":0,"o":""},"Ò":{"ha":696,"x_min":0,"x_max":0,"o":""},"Ó":{"ha":694,"x_min":0,"x_max":0,"o":""},"Ô":{"ha":696,"x_min":0,"x_max":0,"o":""},"Õ":{"ha":696,"x_min":0,"x_max":0,"o":""},"Ö":{"ha":696,"x_min":0,"x_max":0,"o":""},"×":{"ha":564,"x_min":0,"x_max":0,"o":""},"Ø":{"ha":694,"x_min":0,"x_max":0,"o":""},"Ù":{"ha":692,"x_min":0,"x_max":0,"o":""},"Ú":{"ha":692,"x_min":0,"x_max":0,"o":""},"Û":{"ha":690,"x_min":0,"x_max":0,"o":""},"Ü":{"ha":690,"x_min":0,"x_max":0,"o":""},"Ý":{"ha":690,"x_min":0,"x_max":0,"o":""},"ß":{"ha":572,"x_min":0,"x_max":0,"o":""},"à":{"ha":669,"x_min":0,"x_max":0,"o":""},"á":{"ha":669,"x_min":0,"x_max":0,"o":""},"â":{"ha":671,"x_min":0,"x_max":0,"o":""},"ã":{"ha":669,"x_min":0,"x_max":0,"o":""},"ä":{"ha":669,"x_min":0,"x_max":0,"o":""},"å":{"ha":671,"x_min":0,"x_max":0,"o":""},"æ":{"ha":1028,"x_min":0,"x_max":0,"o":""},"ç":{"ha":565,"x_min":0,"x_max":0,"o":""},"è":{"ha":567,"x_min":0,"x_max":0,"o":""},"é":{"ha":565,"x_min":0,"x_max":0,"o":""},"ê":{"ha":565,"x_min":0,"x_max":0,"o":""},"ë":{"ha":567,"x_min":0,"x_max":0,"o":""},"ì":{"ha":279,"x_min":0,"x_max":0,"o":""},"í":{"ha":281,"x_min":0,"x_max":0,"o":""},"î":{"ha":332,"x_min":0,"x_max":0,"o":""},"ï":{"ha":326,"x_min":0,"x_max":0,"o":""},"ñ":{"ha":753,"x_min":0,"x_max":0,"o":""},"ò":{"ha":696,"x_min":0,"x_max":0,"o":""},"ó":{"ha":694,"x_min":0,"x_max":0,"o":""},"ô":{"ha":696,"x_min":0,"x_max":0,"o":""},"õ":{"ha":696,"x_min":0,"x_max":0,"o":""},"ö":{"ha":696,"x_min":0,"x_max":0,"o":""},"ø":{"ha":694,"x_min":0,"x_max":0,"o":""},"ù":{"ha":692,"x_min":0,"x_max":0,"o":""},"ú":{"ha":692,"x_min":0,"x_max":0,"o":""},"û":{"ha":690,"x_min":0,"x_max":0,"o":""},"ü":{"ha":690,"x_min":0,"x_max":0,"o":""},"ý":{"ha":690,"x_min":0,"x_max":0,"o":""},"ÿ":{"ha":692,"x_min":0,"x_max":0,"o":""},"ı":{"ha":271,"x_min":0,"x_max":0,"o":""},"̀":{"ha":218,"x_min":0,"x_max":0,"o":""},"́":{"ha":218,"x_min":0,"x_max":0,"o":""},"‘":{"ha":218,"x_min":0,"x_max":0,"o":""},"’":{"ha":218,"x_min":0,"x_max":0,"o":""},"‚":{"ha":218,"x_min":0,"x_max":0,"o":""},"“":{"ha":433,"x_min":0,"x_max":0,"o":""},"”":{"ha":433,"x_min":0,"x_max":0,"o":""},"„":{"ha":433,"x_min":0,"x_max":0,"o":""},"€":{"ha":725,"x_min":0,"x_max":0,"o":""},"œ":{"ha":1035,"x_min":0,"x_max":0,"o":""},"š":{"ha":550,"x_min":0,"x_max":0,"o":""},"ž":{"ha":551,"x_min":0,"x_max":0,"o":""},"Œ":{"ha":1035,"x_min":0,"x_max":0,"o":""},"Š":{"ha":550,"x_min":0,"x_max":0,"o":""},"Ÿ":{"ha":692,"x_min":0,"x_max":0,"o":""},"":{"ha":671,"x_min":0,"x_max":0,"o":""},"":{"ha":682,"x_min":0,"x_max":0,"o":""},"":{"ha":626,"x_min":0,"x_max":0,"o":"m -350 -393 b -272 -371 -337 -393 -294 -371 b -261 -375 -267 -371 -264 -374 b 238 -3 -250 -375 238 -3 l 274 -4 l 326 44 b 332 50 331 49 329 44 b 374 86 361 72 346 61 b 375 103 375 97 375 92 b 625 347 546 267 456 179 l 576 657 l 375 944 l 81 944 l 81 943 b 124 919 81 940 85 932 b 186 861 168 904 186 879 b 160 831 185 840 160 842 b 243 800 160 821 217 813 b 176 757 217 769 201 757 b 143 776 151 758 156 775 b 94 722 132 776 113 722 l 93 722 b 83 703 86 722 83 703 l 6 58 l 42 54 l -333 -232 l -333 -233 l -476 -342 b -464 -346 -476 -342 -476 -346 b -400 -335 -453 -346 -421 -335 b -350 -367 -367 -335 -350 -354 b -356 -386 -350 -375 -356 -381 b -350 -393 -356 -390 -354 -392 z m 206 165 l 185 165 l 260 785 b 285 781 264 782 285 781 l 289 781 b 414 593 375 657 353 690 l 413 590 l 422 511 l 435 503 l 450 406 z "},"":{"ha":656,"x_min":0,"x_max":0,"o":""},"":{"ha":706,"x_min":0,"x_max":0,"o":"m -37 -397 b -8 -356 -35 -397 -25 -393 b 53 -296 10 -314 35 -296 l 60 -297 b 83 -328 78 -301 72 -326 b 136 -229 94 -328 118 -229 l 138 -229 b 149 -194 144 -229 149 -194 l 218 418 l 485 418 l 433 -29 b 469 -3 433 -29 444 -4 b 506 -19 490 -3 506 -19 l 515 -21 b 575 10 515 -21 535 3 b 599 -3 593 10 599 -3 b 653 368 629 244 614 131 l 643 378 l 704 908 l 690 910 b 667 979 667 913 682 979 b 619 940 654 979 667 953 b 579 935 604 936 590 935 b 544 940 557 935 544 940 l 535 854 l 533 854 l 511 736 l 519 726 l 492 475 b 489 504 489 485 489 496 b 494 531 489 522 494 519 b 446 574 494 542 446 554 b 438 581 446 581 438 581 l 236 581 l 275 911 l 261 913 b 236 979 238 915 253 978 b 190 942 224 979 236 954 b 153 938 176 939 163 938 b 115 943 129 938 115 943 l 106 863 b -39 -397 10 10 53 463 z "},"":{"ha":269,"x_min":0,"x_max":0,"o":""},"":{"ha":371,"x_min":0,"x_max":0,"o":""},"":{"ha":672,"x_min":0,"x_max":0,"o":""},"":{"ha":910,"x_min":0,"x_max":0,"o":""},"":{"ha":751,"x_min":0,"x_max":0,"o":""},"":{"ha":668,"x_min":0,"x_max":0,"o":""},"":{"ha":664,"x_min":0,"x_max":0,"o":""},"":{"ha":556,"x_min":0,"x_max":0,"o":""},"":{"ha":817,"x_min":0,"x_max":0,"o":""},"":{"ha":836,"x_min":0,"x_max":0,"o":""},"":{"ha":688,"x_min":0,"x_max":0,"o":""},"":{"ha":735,"x_min":0,"x_max":0,"o":""},"":{"ha":563,"x_min":0,"x_max":0,"o":""},"":{"ha":564,"x_min":0,"x_max":0,"o":""},"":{"ha":861,"x_min":0,"x_max":0,"o":"m 1076 -467 b 1079 -460 1076 -467 1079 -465 b 1054 -376 1079 -449 1054 -404 b 1081 -336 1054 -350 1069 -336 b 1097 -339 1088 -336 1093 -339 b 1104 -333 1103 -336 1101 -339 b 1068 -253 1104 -319 1068 -272 b 1071 -244 1068 -249 1069 -249 b 1053 -222 1071 -237 1053 -222 l 508 297 l 497 293 b 372 408 411 371 453 333 l 371 407 l 251 517 l 633 865 b 615 871 633 865 631 871 l 588 868 b 529 907 551 868 529 894 l 529 915 b 521 924 529 918 528 924 b 474 915 510 924 488 915 b 457 921 465 915 463 918 b 446 915 454 921 449 918 b 253 740 443 914 253 740 l 264 833 l 261 835 l 264 833 l 271 900 l 257 901 b 232 967 232 904 249 965 b 186 931 221 967 233 942 b 144 925 169 926 156 925 b 110 931 122 925 110 931 l 100 853 l 1 -17 l 3 -17 b 29 10 6 -17 14 -14 b 89 46 47 36 71 46 b 121 25 113 44 107 26 b 169 86 132 25 151 86 l 171 86 b 181 108 178 86 181 108 l 179 108 l 181 108 l 206 325 l 206 336 l 225 319 z "},"":{"ha":651,"x_min":0,"x_max":0,"o":"m 763 -460 b 767 -447 763 -460 767 -458 b 760 -397 767 -436 760 -414 b 792 -344 760 -364 779 -344 b 807 -347 797 -344 803 -347 b 814 -340 811 -344 814 -349 b 797 -276 814 -326 797 -294 b 801 -265 797 -271 799 -268 b 376 239 801 -254 376 239 l 386 239 l 456 300 l 456 314 l 651 501 l 594 743 l 383 944 l 1 944 l 1 943 b 39 919 1 940 4 932 b 96 861 81 903 96 879 b 72 831 94 839 72 843 b 139 806 72 824 113 815 b 117 785 132 793 124 785 b 107 763 110 785 107 763 l 19 0 l 183 0 l 204 185 z m 318 408 l 231 408 l 274 782 l 315 782 b 319 776 318 781 319 779 l 438 653 l 447 658 l 471 556 z "},"":{"ha":826,"x_min":0,"x_max":0,"o":""},"":{"ha":6497,"x_min":0,"x_max":0,"o":"m 683 165 l 663 165 l 738 785 b 767 781 740 782 750 781 l 796 740 b 828 693 810 719 821 703 b 847 664 835 683 842 674 l 892 593 l 890 590 l 900 511 l 913 503 l 928 406 z m 1692 408 l 1604 408 l 1647 782 l 1689 782 b 1693 776 1692 781 1693 779 l 1811 653 l 1821 658 l 1844 556 z m 6468 -467 l 6471 -462 l 6463 -435 b 6446 -376 6451 -407 6446 -387 b 6456 -346 6446 -364 6449 -353 b 6472 -336 6461 -339 6467 -336 l 6494 -337 l 6496 -333 b 6492 -319 6496 -331 6494 -326 b 6467 -274 6481 -303 6472 -287 b 6460 -250 6463 -265 6460 -257 b 6463 -246 6460 -249 6461 -247 b 6460 -237 6463 -243 6461 -240 b 6454 -232 6458 -236 6456 -233 b 5900 297 6451 -229 6267 -53 l 5889 293 l 5822 353 b 5764 408 5804 371 5785 389 l 5763 407 l 5643 517 l 6025 865 l 6025 867 l 6015 871 l 5979 868 b 5938 883 5961 868 5947 874 b 5921 915 5926 893 5921 903 b 5913 924 5921 921 5918 924 b 5890 919 5907 924 5900 922 b 5865 915 5881 917 5872 915 b 5849 921 5861 915 5856 917 b 5843 919 5847 921 5844 921 b 5838 915 5842 918 5839 917 b 5807 888 5836 914 5825 906 b 5740 828 5788 869 5765 850 b 5644 740 5715 804 5683 775 l 5663 900 b 5647 901 5658 900 5653 901 b 5636 915 5642 903 5638 907 b 5633 939 5635 922 5633 931 b 5631 958 5632 946 5632 953 b 5624 967 5629 964 5628 967 b 5619 965 5622 967 5621 967 b 5617 958 5618 964 5618 961 b 5608 944 5615 954 5613 950 b 5576 931 5603 939 5592 935 b 5536 925 5561 926 5547 925 b 5514 928 5525 925 5518 926 b 5506 931 5510 929 5507 929 b 5501 931 5504 931 5503 931 b 5393 -17 5494 879 5458 563 b 5421 10 5401 -17 5411 -8 b 5481 46 5438 33 5458 46 b 5501 33 5489 46 5496 42 b 5513 25 5504 28 5508 25 b 5531 50 5517 25 5522 33 b 5563 86 5544 74 5554 86 b 5571 97 5565 86 5568 90 l 5597 325 l 5597 336 b 6468 -467 5610 325 5900 57 z m 4640 -22 b 4668 6 4646 -22 4656 -12 b 4726 46 4685 32 4704 46 b 4744 39 4736 44 4743 42 b 4751 29 4747 36 4750 33 b 4758 22 4753 25 4756 22 b 4778 51 4763 22 4769 32 b 4794 78 4783 61 4789 69 b 4808 90 4799 86 4804 90 b 4818 103 4814 90 4817 94 l 4876 599 l 5128 0 l 5288 0 l 5383 944 b 5390 1004 5386 975 5389 994 b 5361 974 5381 1004 5371 994 b 5301 926 5344 942 5324 926 b 5285 935 5292 928 5286 931 b 5279 942 5282 938 5281 940 b 5278 944 5278 943 5278 943 b 5269 953 5275 949 5272 951 b 5250 919 5267 953 5260 942 b 5219 876 5238 892 5228 878 b 5211 863 5215 876 5213 872 b 5158 353 5210 853 5193 683 l 4913 944 l 4753 944 l 4639 -22 z m 4061 0 l 4425 92 l 4493 106 b 4513 129 4499 106 4504 114 b 4540 163 4525 151 4535 163 b 4551 175 4546 163 4550 167 b 4636 914 4553 183 4581 429 b 4622 915 4632 914 4628 915 b 4611 928 4617 917 4613 921 b 4607 950 4608 935 4607 943 b 4606 968 4607 957 4607 964 b 4600 975 4604 972 4603 974 b 4594 974 4597 975 4596 975 b 4590 967 4593 972 4592 969 b 4582 954 4589 963 4586 958 b 4553 942 4576 949 4567 944 b 4515 938 4538 939 4525 938 b 4476 943 4503 938 4490 939 l 4397 250 l 4157 190 l 4172 268 l 4163 276 l 4243 969 b 4214 946 4235 969 4225 961 b 4154 913 4199 924 4178 913 b 4135 925 4143 914 4138 918 b 4125 932 4131 929 4126 932 b 4107 910 4121 932 4115 925 b 4079 876 4094 888 4086 876 b 4069 867 4074 876 4071 874 b 4061 813 4067 854 4064 836 b 4056 758 4060 789 4057 771 b 4051 729 4054 746 4053 736 b 4046 699 4050 721 4049 711 l 4025 586 l 4035 578 b 3988 161 4003 308 3988 169 b 3981 146 3988 153 3985 147 b 3949 138 3976 144 3965 142 b 3950 133 3949 136 3949 135 b 3954 129 3951 132 3953 131 b 3971 117 3957 124 3964 119 b 4010 61 3993 106 4006 88 b 4008 47 4010 54 4010 49 b 4006 39 4007 46 4006 43 b 4025 25 4007 33 4013 29 b 4054 4 4042 19 4051 13 b 4061 0 4054 1 4057 0 z m 3204 -397 b 3233 -356 3211 -397 3221 -383 b 3294 -296 3251 -315 3272 -296 b 3313 -304 3304 -297 3310 -300 b 3317 -315 3314 -308 3315 -311 b 3325 -328 3319 -324 3322 -328 b 3344 -289 3329 -328 3335 -315 b 3379 -229 3360 -249 3371 -229 b 3388 -211 3382 -229 3385 -224 l 3460 418 l 3726 418 l 3675 -29 l 3678 -25 b 3711 -3 3685 -10 3696 -3 b 3726 -6 3717 -3 3722 -4 b 3738 -11 3731 -7 3733 -10 b 3743 -15 3740 -12 3742 -14 b 3749 -19 3744 -17 3747 -18 b 3757 -21 3751 -19 3754 -21 b 3817 10 3774 -6 3794 6 b 3840 -3 3828 10 3835 6 l 3861 163 l 3894 368 l 3885 378 l 3946 908 b 3931 910 3942 908 3936 910 b 3919 924 3925 911 3921 915 b 3917 950 3918 932 3917 940 b 3915 971 3917 958 3917 965 b 3908 979 3914 976 3913 979 b 3904 978 3907 979 3906 979 b 3900 969 3903 976 3901 974 b 3892 956 3899 965 3896 961 b 3861 940 3886 949 3876 944 b 3821 935 3846 936 3832 935 b 3786 940 3810 935 3799 936 l 3776 854 l 3775 854 l 3753 736 l 3761 726 l 3733 475 b 3731 504 3732 486 3731 496 b 3733 521 3731 514 3732 519 b 3736 531 3735 522 3736 526 b 3717 546 3736 535 3729 539 b 3688 574 3697 556 3688 565 b 3685 579 3688 576 3686 578 b 3478 581 3682 581 3614 581 l 3517 911 b 3501 913 3513 911 3507 913 b 3490 926 3496 914 3492 918 b 3488 950 3489 933 3488 942 b 3485 971 3486 958 3486 965 b 3478 979 3483 976 3482 979 b 3474 978 3476 979 3475 979 b 3471 971 3472 976 3472 974 b 3463 957 3469 967 3467 963 b 3432 943 3457 950 3447 946 b 3394 938 3417 939 3404 938 b 3357 943 3382 938 3369 939 l 3347 863 b 3276 256 3317 589 3293 386 b 3204 -397 3258 125 3235 -93 z m 3139 0 b 3129 25 3138 10 3133 18 b 3115 83 3119 40 3115 60 b 3118 103 3115 94 3117 101 b 3121 113 3119 104 3121 108 b 3113 128 3121 117 3118 122 b 3099 154 3103 138 3099 146 b 3097 160 3099 156 3099 158 b 2942 161 3096 161 3043 161 l 2854 386 l 2844 385 l 2881 588 l 3063 776 l 3240 776 b 3232 801 3240 783 3238 792 b 3221 858 3225 814 3221 833 b 3222 878 3221 868 3221 875 b 3225 882 3224 879 3224 881 b 3225 888 3225 883 3225 885 b 3218 904 3225 893 3222 899 b 3207 931 3211 914 3207 922 b 3206 936 3207 932 3207 935 b 3124 938 3204 938 3176 938 l 3125 944 l 3001 944 l 2981 924 l 2979 924 l 2857 810 l 2857 796 l 2731 664 l 2676 365 l 2836 0 z m 2200 -29 b 2228 -3 2207 -29 2217 -21 b 2286 35 2244 22 2264 35 b 2304 29 2296 33 2303 31 b 2311 19 2307 26 2310 24 b 2318 13 2313 15 2315 13 b 2338 39 2322 13 2329 21 b 2369 76 2351 63 2363 75 b 2378 88 2372 76 2375 81 l 2456 771 l 2783 771 b 2782 772 2783 772 2783 772 b 2761 813 2768 778 2761 792 b 2768 839 2761 821 2763 829 b 2769 851 2769 840 2769 844 b 2744 894 2758 860 2750 875 b 2742 914 2743 901 2742 908 b 2749 933 2742 922 2744 929 l 2613 933 l 2451 944 l 2446 933 l 2022 933 l 2022 921 b 1992 900 2022 913 2013 906 b 1971 889 1978 897 1971 894 b 1978 882 1971 885 1974 882 b 1996 869 1985 879 1992 875 b 2006 846 2000 864 2003 856 b 2014 792 2011 822 2014 804 l 2013 771 l 2081 771 l 2081 768 l 2175 760 l 2182 771 l 2292 771 b 2265 547 2281 674 2272 599 b 2251 425 2258 494 2254 454 b 2242 338 2247 396 2244 367 b 2226 213 2238 308 2233 267 b 2200 -29 2219 158 2211 78 z m 2138 -460 b 2139 -457 2138 -460 2139 -458 b 2140 -453 2139 -456 2139 -454 b 2140 -447 2140 -451 2140 -449 b 2138 -425 2140 -443 2139 -435 b 2133 -397 2135 -415 2133 -407 b 2146 -358 2133 -381 2138 -368 b 2165 -344 2153 -349 2160 -344 b 2175 -346 2169 -344 2172 -344 b 2181 -347 2176 -347 2179 -347 b 2185 -346 2182 -346 2183 -346 b 2188 -340 2186 -346 2188 -344 b 2179 -310 2188 -333 2185 -324 b 2171 -276 2174 -297 2171 -286 b 2175 -265 2171 -272 2172 -268 b 1963 -10 2175 -260 2104 -175 l 1750 239 l 1760 239 l 1829 300 l 1829 314 l 2025 501 l 1968 743 l 1757 944 l 1375 944 b 1413 919 1375 936 1388 928 b 1469 861 1450 904 1469 885 b 1456 842 1469 851 1465 844 b 1446 831 1449 838 1446 833 b 1457 824 1446 829 1450 826 b 1483 815 1464 821 1474 818 b 1513 806 1493 813 1503 810 b 1493 786 1506 793 1499 786 b 1482 772 1488 785 1483 781 b 1393 0 1481 765 1451 507 l 1557 0 l 1578 185 l 2136 -460 z m 1107 -49 b 1135 -21 1113 -49 1122 -39 b 1190 19 1151 6 1169 19 b 1208 14 1200 18 1206 15 b 1218 0 1210 13 1213 7 b 1224 -3 1219 -1 1221 -3 b 1242 24 1226 -3 1233 6 b 1272 63 1254 47 1264 61 b 1281 75 1276 63 1279 67 l 1372 918 l 1360 919 b 1343 961 1349 921 1343 935 b 1336 988 1343 978 1340 986 b 1331 986 1333 988 1332 988 b 1328 978 1329 985 1329 982 b 1319 964 1326 974 1324 969 b 1289 950 1314 958 1304 954 b 1249 943 1274 946 1260 943 b 1214 949 1238 943 1226 944 b 1106 -49 1179 617 1142 283 z m 128 -393 l 183 -375 b 206 -371 192 -372 199 -371 b 214 -372 210 -371 213 -371 b 217 -375 215 -374 215 -375 b 471 -189 219 -375 304 -312 l 715 -3 l 751 -4 b 807 46 786 28 806 44 b 810 50 808 47 810 49 b 829 65 821 60 828 64 b 839 75 831 67 833 69 l 851 86 l 853 103 l 904 153 b 1007 253 950 194 983 228 l 1103 347 l 1054 657 l 853 944 l 558 944 l 560 940 b 601 919 564 933 578 926 b 664 861 643 904 664 885 b 647 840 664 853 658 846 b 638 831 640 838 638 835 b 678 814 638 826 651 821 b 721 800 694 810 708 806 b 654 757 696 771 674 757 b 628 774 644 757 636 763 b 621 776 626 775 624 776 b 603 754 617 776 611 769 b 574 722 589 733 579 722 b 564 713 568 722 564 719 b 483 58 561 701 535 483 l 519 54 l 144 -232 l 144 -233 l 1 -342 b 6 -344 3 -343 4 -344 b 10 -344 7 -344 8 -344 b 14 -346 11 -346 13 -346 b 38 -342 18 -346 26 -344 b 78 -335 53 -337 65 -335 b 115 -346 94 -335 107 -339 b 128 -367 124 -353 128 -360 b 125 -376 128 -371 126 -374 b 122 -386 124 -381 122 -383 b 128 -393 122 -389 124 -392 z "}}}
